<mxfile host="app.diagrams.net" agent="Mozilla/5.0 (Macintosh; Intel Mac OS X 10_15_7) AppleWebKit/537.36 (KHTML, like Gecko) Chrome/132.0.0.0 Safari/537.36" version="26.0.11" pages="2">
  <diagram name="landing" id="QRmQ1dGdKTm8xX9rar3Z">
    <mxGraphModel dx="1218" dy="1175" grid="0" gridSize="10" guides="0" tooltips="1" connect="0" arrows="0" fold="1" page="1" pageScale="1" pageWidth="1654" pageHeight="1169" math="0" shadow="0">
      <root>
        <mxCell id="0" />
        <mxCell id="1" parent="0" />
        <mxCell id="LtmkOcvQwODDvvEoTKv7-6" value="" style="verticalLabelPosition=bottom;shadow=0;dashed=0;align=center;html=1;verticalAlign=top;strokeWidth=1;shape=mxgraph.mockup.graphics.pieChart;strokeColor=#008cff;parts=10,20,35;partColors=#e0e0e0,#d0d0d0,#c0c0c0,#b0b0b0,#a0a0a0;strokeWidth=2;" vertex="1" parent="1">
          <mxGeometry x="143" y="132" width="200" height="200" as="geometry" />
        </mxCell>
        <mxCell id="LtmkOcvQwODDvvEoTKv7-7" value="Level 0 processes" style="text;strokeColor=none;fillColor=none;html=1;fontSize=24;fontStyle=1;verticalAlign=middle;align=center;" vertex="1" parent="1">
          <mxGeometry x="86" y="26" width="347" height="40" as="geometry" />
        </mxCell>
        <mxCell id="LtmkOcvQwODDvvEoTKv7-8" value="&lt;table border=&quot;1&quot; width=&quot;100%&quot; height=&quot;100%&quot; cellpadding=&quot;4&quot; style=&quot;width:100%;height:100%;border-collapse:collapse;&quot;&gt;&lt;tbody&gt;&lt;tr&gt;&lt;th align=&quot;center&quot;&gt;&lt;b&gt;Demand 1&lt;/b&gt;&lt;/th&gt;&lt;/tr&gt;&lt;tr&gt;&lt;td align=&quot;center&quot;&gt;Section 1.1&lt;br&gt;Section 1.2&lt;br&gt;Section 1.3&lt;/td&gt;&lt;/tr&gt;&lt;tr&gt;&lt;td align=&quot;center&quot;&gt;Section 2.1&lt;br&gt;Section 2.2&lt;br&gt;Section 2.3&lt;/td&gt;&lt;/tr&gt;&lt;/tbody&gt;&lt;/table&gt;" style="text;html=1;whiteSpace=wrap;strokeColor=none;fillColor=none;overflow=fill;" vertex="1" parent="1">
          <mxGeometry x="79" y="479" width="180" height="180" as="geometry" />
        </mxCell>
        <mxCell id="LtmkOcvQwODDvvEoTKv7-9" value="&lt;table border=&quot;1&quot; width=&quot;100%&quot; height=&quot;100%&quot; cellpadding=&quot;4&quot; style=&quot;width:100%;height:100%;border-collapse:collapse;&quot;&gt;&lt;tbody&gt;&lt;tr&gt;&lt;th align=&quot;center&quot;&gt;&lt;b&gt;Demand 1&lt;/b&gt;&lt;/th&gt;&lt;/tr&gt;&lt;tr&gt;&lt;td align=&quot;center&quot;&gt;Section 1.1&lt;br&gt;Section 1.2&lt;br&gt;Section 1.3&lt;/td&gt;&lt;/tr&gt;&lt;tr&gt;&lt;td align=&quot;center&quot;&gt;Section 2.1&lt;br&gt;Section 2.2&lt;br&gt;Section 2.3&lt;/td&gt;&lt;/tr&gt;&lt;/tbody&gt;&lt;/table&gt;" style="text;html=1;whiteSpace=wrap;strokeColor=none;fillColor=none;overflow=fill;" vertex="1" parent="1">
          <mxGeometry x="311" y="479" width="180" height="180" as="geometry" />
        </mxCell>
        <mxCell id="LtmkOcvQwODDvvEoTKv7-10" value="&lt;table border=&quot;1&quot; width=&quot;100%&quot; height=&quot;100%&quot; cellpadding=&quot;4&quot; style=&quot;width:100%;height:100%;border-collapse:collapse;&quot;&gt;&lt;tbody&gt;&lt;tr&gt;&lt;th align=&quot;center&quot;&gt;&lt;b&gt;Demand 1&lt;/b&gt;&lt;/th&gt;&lt;/tr&gt;&lt;tr&gt;&lt;td align=&quot;center&quot;&gt;Section 1.1&lt;br&gt;Section 1.2&lt;br&gt;Section 1.3&lt;/td&gt;&lt;/tr&gt;&lt;tr&gt;&lt;td align=&quot;center&quot;&gt;Section 2.1&lt;br&gt;Section 2.2&lt;br&gt;Section 2.3&lt;/td&gt;&lt;/tr&gt;&lt;/tbody&gt;&lt;/table&gt;" style="text;html=1;whiteSpace=wrap;strokeColor=none;fillColor=none;overflow=fill;" vertex="1" parent="1">
          <mxGeometry x="551" y="479" width="180" height="180" as="geometry" />
        </mxCell>
        <mxCell id="LtmkOcvQwODDvvEoTKv7-11" value="&lt;table border=&quot;1&quot; width=&quot;100%&quot; height=&quot;100%&quot; cellpadding=&quot;4&quot; style=&quot;width:100%;height:100%;border-collapse:collapse;&quot;&gt;&lt;tbody&gt;&lt;tr&gt;&lt;th align=&quot;center&quot;&gt;&lt;b&gt;Demand 1&lt;/b&gt;&lt;/th&gt;&lt;/tr&gt;&lt;tr&gt;&lt;td align=&quot;center&quot;&gt;Section 1.1&lt;br&gt;Section 1.2&lt;br&gt;Section 1.3&lt;/td&gt;&lt;/tr&gt;&lt;tr&gt;&lt;td align=&quot;center&quot;&gt;Section 2.1&lt;br&gt;Section 2.2&lt;br&gt;Section 2.3&lt;/td&gt;&lt;/tr&gt;&lt;/tbody&gt;&lt;/table&gt;" style="text;html=1;whiteSpace=wrap;strokeColor=none;fillColor=none;overflow=fill;" vertex="1" parent="1">
          <mxGeometry x="792" y="477" width="180" height="180" as="geometry" />
        </mxCell>
      </root>
    </mxGraphModel>
  </diagram>
  <diagram id="WSY-gjTEog1dUcVkWKKA" name="BBMvsGS">
    <mxGraphModel dx="1575" dy="2370" grid="0" gridSize="10" guides="0" tooltips="1" connect="0" arrows="0" fold="1" page="1" pageScale="1" pageWidth="1654" pageHeight="1169" math="0" shadow="0">
      <root>
        <mxCell id="0" />
        <mxCell id="1" parent="0" />
        <mxCell id="C-N8vvvN-SdDMxmpiXjP-1" value="BBM Story&lt;div&gt;Created&lt;/div&gt;" style="html=1;outlineConnect=0;whiteSpace=wrap;fillColor=#d5e8d4;shape=mxgraph.archimate3.event;strokeColor=#82b366;fontStyle=0" vertex="1" parent="1">
          <mxGeometry x="242" y="-1054" width="135" height="57" as="geometry" />
        </mxCell>
        <mxCell id="C-N8vvvN-SdDMxmpiXjP-2" value="State ABC" style="html=1;outlineConnect=0;whiteSpace=wrap;fillColor=#d5e8d4;shape=mxgraph.archimate3.application;appType=proc;archiType=rounded;strokeColor=#82b366;" vertex="1" parent="1">
          <mxGeometry x="459" y="-1065" width="150" height="75" as="geometry" />
        </mxCell>
        <mxCell id="C-N8vvvN-SdDMxmpiXjP-10" value="" style="edgeStyle=none;rounded=0;orthogonalLoop=1;jettySize=auto;html=1;fontSize=6;fontStyle=0" edge="1" parent="1" source="C-N8vvvN-SdDMxmpiXjP-1" target="C-N8vvvN-SdDMxmpiXjP-2">
          <mxGeometry relative="1" as="geometry">
            <mxPoint x="315" y="-904" as="sourcePoint" />
            <mxPoint x="465" y="-831" as="targetPoint" />
          </mxGeometry>
        </mxCell>
        <mxCell id="C-N8vvvN-SdDMxmpiXjP-11" value="State DDD" style="html=1;outlineConnect=0;whiteSpace=wrap;fillColor=#dae8fc;shape=mxgraph.archimate3.application;appType=proc;archiType=rounded;strokeColor=#6c8ebf;" vertex="1" parent="1">
          <mxGeometry x="929" y="-858" width="150" height="75" as="geometry" />
        </mxCell>
        <mxCell id="C-N8vvvN-SdDMxmpiXjP-12" value="initiate GS Story" style="html=1;outlineConnect=0;whiteSpace=wrap;fillColor=#d5e8d4;shape=mxgraph.archimate3.application;appType=proc;archiType=rounded;strokeColor=#82b366;" vertex="1" parent="1">
          <mxGeometry x="702" y="-1067" width="150" height="75" as="geometry" />
        </mxCell>
        <mxCell id="C-N8vvvN-SdDMxmpiXjP-13" value="BBM Story&lt;div&gt;Created&lt;/div&gt;" style="html=1;outlineConnect=0;whiteSpace=wrap;fillColor=#dae8fc;shape=mxgraph.archimate3.event;strokeColor=#6c8ebf;fontStyle=0" vertex="1" parent="1">
          <mxGeometry x="719" y="-849" width="135" height="57" as="geometry" />
        </mxCell>
        <mxCell id="C-N8vvvN-SdDMxmpiXjP-14" value="" style="edgeStyle=none;rounded=0;orthogonalLoop=1;jettySize=auto;html=1;fontSize=6;fontStyle=0" edge="1" parent="1" source="C-N8vvvN-SdDMxmpiXjP-2" target="C-N8vvvN-SdDMxmpiXjP-12">
          <mxGeometry relative="1" as="geometry">
            <mxPoint x="387" y="-1016" as="sourcePoint" />
            <mxPoint x="469" y="-1017" as="targetPoint" />
          </mxGeometry>
        </mxCell>
        <mxCell id="C-N8vvvN-SdDMxmpiXjP-15" value="" style="edgeStyle=none;rounded=0;orthogonalLoop=1;jettySize=auto;html=1;fontSize=6;fontStyle=0;fillColor=#dae8fc;strokeColor=#6c8ebf;" edge="1" parent="1" source="C-N8vvvN-SdDMxmpiXjP-13" target="C-N8vvvN-SdDMxmpiXjP-11">
          <mxGeometry relative="1" as="geometry">
            <mxPoint x="397" y="-1006" as="sourcePoint" />
            <mxPoint x="479" y="-1007" as="targetPoint" />
          </mxGeometry>
        </mxCell>
        <mxCell id="C-N8vvvN-SdDMxmpiXjP-16" value="" style="html=1;endArrow=block;dashed=1;elbow=vertical;endFill=1;dashPattern=6 4;rounded=0;fontSize=12;fontStyle=0" edge="1" parent="1" source="C-N8vvvN-SdDMxmpiXjP-12" target="C-N8vvvN-SdDMxmpiXjP-13">
          <mxGeometry width="160" relative="1" as="geometry">
            <mxPoint x="847" y="-803" as="sourcePoint" />
            <mxPoint x="928" y="-803" as="targetPoint" />
          </mxGeometry>
        </mxCell>
        <mxCell id="C-N8vvvN-SdDMxmpiXjP-17" value="State DDD" style="html=1;outlineConnect=0;whiteSpace=wrap;fillColor=#d5e8d4;shape=mxgraph.archimate3.application;appType=proc;archiType=rounded;strokeColor=#82b366;" vertex="1" parent="1">
          <mxGeometry x="925" y="-1063" width="150" height="75" as="geometry" />
        </mxCell>
        <mxCell id="C-N8vvvN-SdDMxmpiXjP-18" value="" style="edgeStyle=none;rounded=0;orthogonalLoop=1;jettySize=auto;html=1;fontSize=6;fontStyle=0" edge="1" parent="1" source="C-N8vvvN-SdDMxmpiXjP-12" target="C-N8vvvN-SdDMxmpiXjP-17">
          <mxGeometry relative="1" as="geometry">
            <mxPoint x="619" y="-1018" as="sourcePoint" />
            <mxPoint x="712" y="-1019" as="targetPoint" />
          </mxGeometry>
        </mxCell>
        <mxCell id="C-N8vvvN-SdDMxmpiXjP-19" value="" style="html=1;endArrow=block;dashed=1;elbow=vertical;endFill=1;dashPattern=6 4;rounded=0;fontSize=12;fontStyle=0" edge="1" parent="1" source="C-N8vvvN-SdDMxmpiXjP-17" target="C-N8vvvN-SdDMxmpiXjP-11">
          <mxGeometry width="160" relative="1" as="geometry">
            <mxPoint x="789" y="-982" as="sourcePoint" />
            <mxPoint x="795" y="-839" as="targetPoint" />
          </mxGeometry>
        </mxCell>
        <mxCell id="C-N8vvvN-SdDMxmpiXjP-20" value="State EEE" style="html=1;outlineConnect=0;whiteSpace=wrap;fillColor=#dae8fc;shape=mxgraph.archimate3.application;appType=proc;archiType=rounded;strokeColor=#6c8ebf;" vertex="1" parent="1">
          <mxGeometry x="1162" y="-857" width="150" height="75" as="geometry" />
        </mxCell>
        <mxCell id="C-N8vvvN-SdDMxmpiXjP-21" value="State EEE" style="html=1;outlineConnect=0;whiteSpace=wrap;fillColor=#d5e8d4;shape=mxgraph.archimate3.application;appType=proc;archiType=rounded;strokeColor=#82b366;" vertex="1" parent="1">
          <mxGeometry x="1158" y="-1062" width="150" height="75" as="geometry" />
        </mxCell>
        <mxCell id="C-N8vvvN-SdDMxmpiXjP-22" value="" style="html=1;endArrow=block;dashed=1;elbow=vertical;endFill=1;dashPattern=6 4;rounded=0;fontSize=12;fontStyle=0" edge="1" parent="1" source="C-N8vvvN-SdDMxmpiXjP-20" target="C-N8vvvN-SdDMxmpiXjP-21">
          <mxGeometry width="160" relative="1" as="geometry">
            <mxPoint x="1022" y="-981" as="sourcePoint" />
            <mxPoint x="1390" y="-903" as="targetPoint" />
          </mxGeometry>
        </mxCell>
        <mxCell id="C-N8vvvN-SdDMxmpiXjP-23" value="rm_story" style="html=1;outlineConnect=0;whiteSpace=wrap;fillColor=#d5e8d4;shape=mxgraph.archimate3.businessObject;overflow=fill;strokeColor=#82b366;fontStyle=1" vertex="1" parent="1">
          <mxGeometry x="704" y="-649" width="177" height="98" as="geometry" />
        </mxCell>
        <mxCell id="C-N8vvvN-SdDMxmpiXjP-24" style="html=1;dashed=1;labelBackgroundColor=none;startArrow=none;endArrow=ERzeroToMany;fontFamily=Verdana;fontSize=12;align=left;startFill=0;endFill=0;edgeStyle=elbowEdgeStyle;" edge="1" parent="1" source="C-N8vvvN-SdDMxmpiXjP-23" target="C-N8vvvN-SdDMxmpiXjP-23">
          <mxGeometry relative="1" as="geometry">
            <mxPoint x="784" y="-730" as="sourcePoint" />
            <mxPoint x="454.9250000000002" y="-373" as="targetPoint" />
            <Array as="points">
              <mxPoint x="624" y="-636" />
            </Array>
          </mxGeometry>
        </mxCell>
        <mxCell id="C-N8vvvN-SdDMxmpiXjP-25" value="parent" style="edgeLabel;html=1;align=center;verticalAlign=middle;resizable=0;points=[];" vertex="1" connectable="0" parent="C-N8vvvN-SdDMxmpiXjP-24">
          <mxGeometry x="-0.0792" relative="1" as="geometry">
            <mxPoint as="offset" />
          </mxGeometry>
        </mxCell>
        <mxCell id="C-N8vvvN-SdDMxmpiXjP-26" value="&lt;b&gt;m2m_story_dependencies&lt;/b&gt;&lt;div&gt;&lt;b&gt;&lt;br&gt;&lt;/b&gt;&lt;/div&gt;&lt;div style=&quot;text-align: left;&quot;&gt;prerequisite_story&lt;/div&gt;&lt;div style=&quot;text-align: left;&quot;&gt;dependent_story&lt;/div&gt;" style="html=1;outlineConnect=0;whiteSpace=wrap;fillColor=#d5e8d4;shape=mxgraph.archimate3.businessObject;overflow=fill;strokeColor=#82b366;" vertex="1" parent="1">
          <mxGeometry x="705" y="-483" width="177" height="98" as="geometry" />
        </mxCell>
        <mxCell id="C-N8vvvN-SdDMxmpiXjP-29" style="html=1;dashed=1;labelBackgroundColor=none;startArrow=none;endArrow=ERzeroToMany;fontFamily=Verdana;fontSize=12;align=left;startFill=0;endFill=0;edgeStyle=elbowEdgeStyle;" edge="1" parent="1" source="C-N8vvvN-SdDMxmpiXjP-23" target="C-N8vvvN-SdDMxmpiXjP-26">
          <mxGeometry relative="1" as="geometry">
            <mxPoint x="725" y="-477" as="sourcePoint" />
            <mxPoint x="472" y="-476" as="targetPoint" />
            <Array as="points">
              <mxPoint x="760" y="-519" />
            </Array>
          </mxGeometry>
        </mxCell>
        <mxCell id="C-N8vvvN-SdDMxmpiXjP-35" style="html=1;dashed=1;labelBackgroundColor=none;startArrow=none;endArrow=ERzeroToMany;fontFamily=Verdana;fontSize=12;align=left;startFill=0;endFill=0;edgeStyle=elbowEdgeStyle;" edge="1" parent="1" source="C-N8vvvN-SdDMxmpiXjP-23" target="C-N8vvvN-SdDMxmpiXjP-26">
          <mxGeometry relative="1" as="geometry">
            <mxPoint x="803" y="-541" as="sourcePoint" />
            <mxPoint x="803" y="-473" as="targetPoint" />
            <Array as="points">
              <mxPoint x="838" y="-506" />
            </Array>
          </mxGeometry>
        </mxCell>
      </root>
    </mxGraphModel>
  </diagram>
</mxfile>
